<?xml version="1.0" standalone="no"?>
<svg viewBox="0 0 200 200" xmlns="http://www.w3.org/2000/svg">
  <path fill="#f7e7d7" d="M42.4,-72.1C53.4,-67,59.9,-52.7,67.5,-39.1C75.1,-25.6,83.8,-12.8,84.8,0.5C85.7,13.9,78.9,27.8,70.6,40.1C62.3,52.4,52.5,63.2,40.5,69.2C28.5,75.1,14.2,76.1,1.8,73C-10.6,69.8,-21.2,62.4,-33.8,56.9C-46.4,51.3,-61,47.5,-66.3,38.3C-71.7,29.1,-67.7,14.6,-65.3,1.4C-63,-11.8,-62.2,-23.7,-57.2,-33.4C-52.2,-43.1,-42.9,-50.7,-32.7,-56.3C-22.4,-61.9,-11.2,-65.5,2.2,-69.4C15.6,-73.2,31.3,-77.2,42.4,-72.1Z" transform="translate(100 100)" />
</svg>
