<svg height="512" viewBox="0 0 256 256" width="512" xmlns="http://www.w3.org/2000/svg"><path d="m82.3 203.716a2.5 2.5 0 0 1 -2.325-1.581l-15.2-38.453a2.5 2.5 0 0 1 4.65-1.838l12.875 32.572 12.877-32.572a2.5 2.5 0 0 1 4.65 1.838l-15.2 38.453a2.5 2.5 0 0 1 -2.327 1.581z" fill="#ebe7f2"/><path d="m81.243 151.522a33.42 33.42 0 1 0 -33.42-33.422 33.457 33.457 0 0 0 33.42 33.422zm0-61.84a28.42 28.42 0 1 1 -28.42 28.418 28.453 28.453 0 0 1 28.42-28.418z" fill="#846f75"/><path d="m108.041 158.583h-53.595a23.139 23.139 0 0 0 -23.114 23.117v47.418a2.5 2.5 0 0 0 2.5 2.5h94.822a2.5 2.5 0 0 0 2.5-2.5v-47.418a23.139 23.139 0 0 0 -23.113-23.117zm18.113 68.031h-89.822v-44.914a18.134 18.134 0 0 1 18.114-18.113h53.6a18.134 18.134 0 0 1 18.108 18.113z" fill="#846f75"/><path d="m178.4 24.386a46.271 46.271 0 0 0 -39.08 71.033l-6.1 17.1a2.5 2.5 0 0 0 3.194 3.194l17.06-6.086a46.264 46.264 0 1 0 24.926-85.241zm0 87.526a41.043 41.043 0 0 1 -23.184-7.127 2.5 2.5 0 0 0 -1.407-.433 2.473 2.473 0 0 0 -.839.145l-13.269 4.733 4.746-13.3a2.5 2.5 0 0 0 -.282-2.239 41.266 41.266 0 1 1 34.235 18.221z" fill="#846f75"/><g fill="#a58bc9"><path d="m180.345 177.383a23.437 23.437 0 1 0 -23.437-23.437 23.463 23.463 0 0 0 23.437 23.437zm0-41.873a18.437 18.437 0 1 1 -18.437 18.436 18.457 18.457 0 0 1 18.437-18.436z"/><path d="m198.49 180.549h-36.29a16.477 16.477 0 0 0 -16.458 16.458v32.107a2.5 2.5 0 0 0 2.5 2.5h64.206a2.5 2.5 0 0 0 2.5-2.5v-32.107a16.477 16.477 0 0 0 -16.458-16.458zm-47.748 21.9h59.206v10h-59.206zm11.458-16.9h36.29a11.47 11.47 0 0 1 11.458 11.458v.441h-59.206v-.441a11.47 11.47 0 0 1 11.458-11.458zm-11.458 41.065v-9.166h59.206v9.166z"/><path d="m183.3 59.263h-26.89a2.5 2.5 0 0 1 0-5h26.89a2.5 2.5 0 0 1 0 5z"/><path d="m202.3 72.6h-45.89a2.5 2.5 0 0 1 0-5h45.89a2.5 2.5 0 0 1 0 5z"/><path d="m171.964 85.93h-15.556a2.5 2.5 0 0 1 0-5h15.556a2.5 2.5 0 0 1 0 5z"/><path d="m196.3 86.682h-13a2.5 2.5 0 0 1 0-5h13a2.5 2.5 0 0 1 0 5z"/></g><path d="m116.88 214.431h-16.832a2.5 2.5 0 0 1 -2.5-2.5v-16.831a2.5 2.5 0 0 1 2.5-2.5h16.832a2.5 2.5 0 0 1 2.5 2.5v16.832a2.5 2.5 0 0 1 -2.5 2.499zm-14.332-5h11.832v-11.831h-11.832z" fill="#ebe7f2"/></svg>